<?xml version="1.0" encoding="UTF-8"?>
<svg xmlns="http://www.w3.org/2000/svg" viewBox="0 0 481.65 281.06">
  <defs>
    <style>
      .cls-1 {
        fill: #abc570;
      }
    </style>
  </defs>
  <g id="Layer_2" data-name="Layer 2">
    <path d="M296.89,165.31c-6.44,4.1-12.88,8.19-19.32,12.29"/>
    <path class="cls-1" d="M290.98,171.38c-6.15,3.64-11.99,7.09-15.64,14.05-2.71,5.15-1.97,7.96-3.03,20.27-1.82,21.19-4.68,20.85-3.51,30.33,1.48,12.04,7.07,20.48,9.74,24.42,3.87,5.71,7.14,10.54,13.57,13.41,3.6,1.61,9.28,1.2,20.43.48,15.73-1.02,18.7-2.44,20.11-3.19,4.7-2.51,7.4-5.81,11.65-11.01,5.25-6.42,8.1-12.29,9.26-14.85,4.25-9.4,5.28-17.53,5.59-20.91.48-5.23,1.4-16.71-4.31-29.69-.99-2.25-5.28-11.59-15.01-20.11-5.66-4.96-11.52-10.09-20.43-11.49-11.36-1.79-20.51,3.63-28.41,8.3Z"/>
  </g>
  <g id="Layer_1" data-name="Layer 1">
    <g>
      <path d="M212.08,123.24c-6.28-7.01-12.58-13.95-18.81-20.97-1.68-1.92-3.99-4.54-5.77-6.17-.78-.71-1.5-1.32-2.06-1.32-.83,0-.72,1.46-.57,2.17,2.36,11.41,7.95,23.47,5.2,35.44-.97,2.82-4.17,3.05-6.76,3.3-4.54.31-11.43,0-16.27-.35-4.18-.16-8.75-1.25-9.39-6.17-4.34-31.85-4.46-65.68-6.6-97.82-.36-7.5-4.19-23.51.7-29.29,2.22-.72,7.18-.13,10.14-.25,13.39-.11,27.04-1.36,40.29,1.41,6.33,1.6,11.95,5.03,17.16,9.1,12.58,9.7,18.27,22.09,14.26,37.56-2.7,11.38-13.44,21.12-23.85,26.04-1.34.62-1.12,1.35-.09,2.34,4.04,4.25,7.66,9.07,11.94,13.04,11.35,11.46,24.91,21.85,34.16,35.57.9,2.09,3.66,7.19.44,8.07-2.26.63-4.48,1.26-6.79,1.21-7.72-.1-17.34.4-24.79-.72-1.8-.39-2.41-2.12-3.45-3.42-2.11-2.53-4.82-4.47-6.94-7.13M181.43,26.42c-1.29.18-2.72.5-3.7,1.41-.62.66-.38,1.04-.29,1.99.42,3.35.78,6.23,1.3,10.36.66,4.46,1.16,11.07,1.94,14.51,7.11,2.62,17.82-1.33,22.95-6.37,3.32-3.27,4.63-7.39,1.95-11.66-1.3-2.42-3.18-4.72-5.3-6.31-5.27-4.03-12.14-4.73-18.66-3.94l-.19.03Z"/>
      <path d="M463.02,267.01c-26.74,22.35-74.12,13.81-82.1-21.8-6.29-20.4-8.81-42.56-8.74-63.19-.04-4.79-.1-9.72-.08-14.78,0-2.28.36-5.3,1.87-6.53,2.27-1.92,5.69-1.12,8.48-1.15,5.89.12,12.05.09,17.86.72,4.21.2,8.01,2.81,8.07,7.31.15,17.62,0,34.86,4.11,52.25,1.53,8.25,4.79,17,13.74,19.73,9.28,3.3,15.82-1.2,19.21-9.89,4.12-15.33,3.37-38.98,3.21-51.99-.24-4.87-1.19-11.25-.88-15.95.02-2.55,1.94-4.19,4.45-4.29,6.06-.27,19.7,0,24.07,4.43,1.34,1.47,1.98,3.56,2.37,5.78,1.3,7.39,2.01,14.23,2.46,21.73.71,12.08.63,25.29.15,36.85.03,15.51-5.81,30.85-18.11,40.65l-.15.13Z"/>
      <path d="M222.86,158.64c.62.19.91.24,1.02.72,1.38,25.97,5.78,108.19,6.19,116.03.02.78-.27.89-1.27,1.46-3.19,1.62-8.79,2.35-12.8,2.09-6.98-.08-14.59.98-20.9-1.55-.78-.33-1.4-.84-1.43-1.75-.56-7.73-2.15-48.18-2.89-53.8-.16-.21-.48-.27-1.1-.29-1.17-.01-3.67.05-6.83.09-7.76.14-17.46.25-21.69.38-.88,0-1.22.35-1.18,1.27-.02.56-.04,1.37-.07,2.39-.38,9.78-.82,36.15-1.47,48.85-.33.71-.91.77-1.87,1.02-1.76.36-4.67.63-6.86.74-5.46.17-11.59.46-17.02-.23-2.08-.32-4.11-.76-5.87-1.4-1.14-.44-1.19-.77-1.13-1.46.38-10.89,3.56-106.11,3.83-113.04.21-1.21,2.16-1.06,4.69-1.39,6.86-.3,13.67-.18,20.29.52,1.28.16,2.62.19,3.77.7.97.45.81,1.48.88,3.38.27,9.82.92,33.59,1.07,39.31.02.51,0,1.15.4,1.4.42.24,1.01.2,1.59.25,5.41.03,22.28,1.03,27.43.68.58-.21.85-.77.94-1.77.14-2.07-.14-4.55-.26-6.69-.37-7.26-.25-14.6-.43-21.86-.04-2.54-.18-4.94-.36-7.49-.02-3.29-1.25-8.42,2.71-9.7,1.48-.44,3.22-.4,4.8-.4,8.43-.07,17.42-.43,25.74,1.52l.1.02Z"/>
      <path d="M103.29,10.82c2.11,5.99,3.46,12.88,5.09,19,1.61,5.88,3.57,11.6,5.49,17.39,8.39,24.49,16.91,49.3,25.78,73.77,1.45,4.32,4.5,7.98,5.3,12.47.37,7.14-9.52,5.46-14.51,5.79-3.96-.2-10.34.56-13.08-1.48-2.68-2.07-3.67-5.45-4.73-8.53-.94-2.83-2.48-7.5-3.83-11.6-2.87-8.87-2.33-9.69-11.79-9.31-9.37.2-18.9-1.08-28.34-.55-5.26.38-7.44.56-8.6,6.68-1.32,4.93-3.47,13.04-4.82,18.08-.86,4.17-2.27,5.94-5.89,6.84-4.23,1.16-9.67.83-14.72.64-5.61-.25-9.79-1.09-8.76-8.1.51-4.74,2.28-10.88,3.69-15.96,7.54-29.98,14.75-60.02,23.21-89.72,1.66-5.67,3.2-11.46,3.64-17.36.18-1.92.63-4.13,2.15-5.31,2.35-1.86,5.85-1.68,8.74-1.94,5.05-.27,8.31-.38,14.38-.37,6.09.07,13.56-.11,19.26,1.09M80.25,38.86c-5.63,15.24-9.38,31.62-13.9,47.32-.32,1.61-1.03,4.08.37,4.95.95.65,4.89.18,7.52.2,8.51-.43,17.68-.09,23.58-.89,1.97-.86.88-3.68.33-5.43-5.19-13.82-10.45-27.67-16.29-41.15"/>
      <path d="M115.35,250.86c-.27,6.08-.99,12.02-3.01,17.89-.76,2.06-1.2,4.46-2.89,5.95-1.82,1.49-4.78,1.41-7.11,1.61-20,1.1-39.06.12-59.01-.44-7.5-.28-14.97.01-22.64.16-5.86-.13-11.82.57-17.44-1.31-4.65-1.88-3.36-8.61-2.04-12.18,1.65-3.13,4.71-5.34,6.66-8.37,13.08-18.01,27.44-35.43,42.37-52.12,4.86-5.43,15.23-16.87,17.98-20.03,1.94-2.38-5.36-1.19-6.46-1.23-12.95.72-26.47.48-39.55.48-3.5-.1-7.52.04-10.71-1.54-3.81-2.52-3.43-5.97-3.49-10.97,0-2.34.06-4.94.23-7.21.13-2.38,1.14-3.36,3.64-3.74,15.31-2.42,31.07-1.54,46.56-1.54,13.71.13,29.15-.2,43.33.48,4.23.51,12.78-.21,15.51,3.3,1.17,2.01.92,5.02-.18,7.12-1.38,2.25-3.74,3.84-5.48,5.81-16.05,17.75-31.7,36.61-47.94,54.63-4.1,5.06-7.75,9.81-12.16,14.78-.83.97-2.56,2.53-2.14,3.72.46,1.14,2.69,1.3,3.98,1.41,15.07.98,31.13.22,46.24.37,4.82-.06,9.64-.25,14.35.99"/>
      <path d="M336.83,95.34c2.97.45,5.94.96,8.91,1.23,3.05.23,6.78.59,7.78,3.98.92,2.41.97,6.39,2.27,9.5,1.15,2.98,3.69,6.35,7.23,5.78,4.15-.84,6.81-5.25,8.09-9.11,2.23-7.66.03-16.58-4.08-23.39-2.58-4.25-6.36-7.46-10.48-10.3-5.71-3.93-11.47-8.24-16.9-12.09-5.44-3.96-11.79-7.16-15.53-13.1-8.28-12.84-.11-28.11,10.97-36.54,5.88-4.91,12.88-7.41,20.53-7.49,6.54-.27,13.26.09,19.78.57,9.77.65,19.05,1.91,26.59,8.07,4.88,3.42,7.42,12.59,3.43,16.96-2.25,2.18-5.65,2.15-8.61,2.16-5.84-.39-11.75.25-17.41-1.19-5.13-1.41-8.15-9.05-13.79-7.44-5.81,2.48-6.49,11.58-4.17,16.93,2.55,6.47,7.92,11.16,13.2,15.46,8.12,7.26,18.07,13.01,25.34,21.26,5.69,5.88,8.61,13.37,10.34,21.76,2.06,10.03,1.14,21.13-5.73,29.05-3.65,4.41-8.77,7.97-14.05,9.9-5.18,1.87-10.82,1.78-16.25,1.87-10.97.17-23.05,1.53-34.01-1.68-11.04-3.22-18.52-14.12-19.07-25.44-.36-8.65.15-17.02,10.31-17.09"/>
      <path d="M336.8,272.59c-16.48,10.78-45.79,10.59-63.86,3.25-49.67-20.17-45.37-99.83,5.35-116.69,13.85-4.6,37.28-2.54,50.77,3.01,44.4,18.27,46.5,85.08,7.74,110.42ZM311.56,167.95c-37.62,2.64-44.51,65.91-23.66,90.05,27.78,32.16,67.06-2.6,66.33-36.21-.26-11.99-3.58-28.07-11.4-37.42-8.45-10.11-17.52-17.39-31.27-16.42Z"/>
      <path d="M282.07,47.95c3.78,0,2.14.07,5.44.04,1.04,0-.38-.11,2.83.2l.88.12,8.97-.15c1.65,6.53,2.35,13.39,2.82,20.11.6,8.73.1,17.61.67,26.3.78,11.94,2.63,23.53,2.72,35.56.02,2.86-.08,5.73,0,8.59-2.3,1.77-3.69,1.14-6.02,1.22-4.48.16-9.47,2.27-13.53,1.13-1.31,2.46-6.52.5-8.67.37-.97-.06-4.29-.07-4.84-1.77l-1.05-22.45c-.61-13.1-.83-26.27-1.4-39.38-.34-7.9-2.01-18.25-1.48-25.9.05-.73.35-3.31.8-3.63,1.43-1.02,3.61-.08,5.3-.25"/>
      <path d="M288.99.48c1.74,3.45,3.59,13.05,8.01,13.59s10.09-.33,14.44.2c.51.06,1.11-.02,1.45.47l.13,2.83-11.47,7.1c-.28,1.72,5.15,8.14,6.03,10.25.93,2.21,1.11,4.32-1.92,4.34-8.93.06-11.48-4.6-18.59-6.84-.72-.23-1.18-.44-2.02-.41-3.34.14-10.07,6.01-13.45,7.26-2.24.82-6.34-.09-8.84-.06-1.81-1.83,6.82-12.36,7.14-15.04-.09-.4-2.83-1.92-3.48-2.29-2.86-1.64-7.53-1.98-6.05-6.12,4.21-.82,12.11-.08,15.67-2.28,2.43-1.5,5.3-11.08,7.35-12.84,1.35-1.16,3.95-.46,5.63-.16Z"/>
      <path d="M310.57,201.03c2.63-.45,8.46.62,10.65,2.08,8.61,5.7,8.51,25.35,1.73,32.37-3.67,3.8-10.04,3.48-14.65,1.66-11.5-4.55-10.69-33.89,2.27-36.1Z"/>
      <path d="M303.82,187.61c2.66-.05,7.21,7.56,5.46,8.78-2.09,1.45-9.72-4.21-7.64-7.64.23-.66,1.56-1.13,2.18-1.14Z"/>
      <path d="M313.64,254.09c-.43-2.4.18-10.29,3.95-8.99,2.24.77,2.49,13.03-3.95,8.99Z"/>
      <path d="M312.61,195.64c.51-3.1-2.99-8.03,1.08-9.71,1.75-.72,3.01-.83,3.26,1.29.37,3.1.05,9.25-4.34,8.42Z"/>
      <path d="M289.92,220.68c1.15-.26,6.25-.03,5.9,1.57-1.81,2.01-6.69,5.88-9.32,4.05-2.48-1.73,1.46-5.17,3.42-5.62Z"/>
      <path d="M308.16,243.2c3.14-.47,1.22,7.2-.93,8.21-2.56,1.2-4.86-.17-4.01-3.01.4-1.31,3.53-4.99,4.94-5.2Z"/>
      <path d="M323.05,242.71c2.78-.38,7.19,7.71,2.17,8.49-2.67.41-3.66-4.01-3.88-6.05-.14-1.35.22-2.23,1.7-2.44Z"/>
      <path d="M333.6,213.98c2.18-.4,5.93-.38,6.65,2.27.51,1.86-1.8,2.99-3.38,2.88-.3-.02-5.31-1.96-5.54-2.15-1.72-1.37.94-2.76,2.27-3Z"/>
      <path d="M300.02,237.94c1.29-.21,2.22-.15,2.9,1.1-1.82,2.92-3.43,6.75-7.61,5.31-1.84-2.79,2.2-6,4.71-6.41Z"/>
      <path d="M308.61,252.8c4.9-1.71,3.19,6.89,1.11,7.83-5.14,2.34-3.27-7.08-1.11-7.83Z"/>
      <path d="M291.84,212.53c3.43-.78,4.5.58,6.37,3.02-1.69,2.1-6.16,2.75-8.34,1.15-1.95-1.42.16-3.75,1.97-4.17Z"/>
      <path d="M309.2,177.46c.93,2.54-.22,5.13-.01,7.79-2.44,2.45-3.76-.5-4.13-2.92-.58-3.78-.11-5.54,4.14-4.87Z"/>
      <path d="M322.06,189.97c.72-.22,2.35-.3,2.82.36,1.76,3.01-2.41,8.13-5.24,7.17-2.21-.75,1.11-7.13,2.43-7.53Z"/>
      <path d="M297.61,195.73c2.27-.49,4.81.97,6.14,2.76,3.02,4.05-6.76,2.45-7.7.5-.77-1.59-.14-2.9,1.56-3.26Z"/>
      <path d="M298.7,230.17c.77,3.82-4.17,7.42-7.63,5.71-.15-3.9,4-6.49,7.63-5.71Z"/>
      <path d="M324.06,261.29c-.4.25-1.94.14-2.48-.03-2.19-.68-2.39-8.14-1.04-8.54,2.73-.81,5.3,7.45,3.52,8.56Z"/>
      <path d="M290.88,182.3c3.33-1.02,7.66,4.28,6.64,5.68-2.45,2.38-11.19-4.29-6.64-5.68Z"/>
      <path d="M319.33,186.52c-.47-3.71,1.12-9.05,5.78-7.95.5.34.49.88.45,1.43-.11,1.69-4.95,7.76-6.24,6.52Z"/>
      <path d="M299.64,209.52c-2.09,1.18-8.37-.59-7.59-3.46,1.14-4.19,8.39-.46,7.59,3.46Z"/>
      <path d="M336.02,222.13c6.1-.73,4.53,5.25.39,4.67-.63-.09-4.99-1.4-5.07-1.68-.55-1.77,3.48-2.85,4.69-3Z"/>
      <path d="M332.65,242.05c-2.02,2.03-7.21-2.44-7.05-3.42.31-1.92,6.89-1.86,7.58.52.22.76.03,2.35-.52,2.9Z"/>
      <path d="M329.31,196.69c2.35-.2,3.6,1.02,2.88,3.4-.76,2.54-6.36.65-8.06-.39-.32-1.42,4.09-2.92,5.18-3.02Z"/>
      <path d="M328.94,207.6c-1.19-1.76,3.39-2.84,4.57-2.87,5.09-.13,4.16,5.89-.75,4.6-.31-.08-3.69-1.55-3.81-1.73Z"/>
      <path d="M288.79,232.26c-1.22,1.35-3.48,4.57-5.8,2.59-3.42-2.93,7.01-6.96,7.55-4.43.2.97-1.29,1.33-1.75,1.84Z"/>
      <path d="M329.89,231.61l.21-1.46.58-.39c1.48.02,6.47.25,7.12,1.37.57,1.23.41,3.33-1.06,3.76-2.83.84-3.85-3.46-6.86-3.28Z"/>
      <path d="M294.86,254.16c-.57-3.4,2.23-7.21,5.77-6.97,1.31.9-1.88,6.46-3.23,6.87-.8.24-1.71.08-2.54.1Z"/>
      <path d="M286.08,196.21c2.18-.65,6.35.22,7.34,2.52-2.11,3.92-12.66-.93-7.34-2.52Z"/>
      <path d="M327.49,194.19c1.45-3.14,4.58-7.2,8.12-4.02.92,2.66-5.99,4.68-8.12,4.02Z"/>
      <path d="M285.15,207.72c1.21-.17,4.79.51,4.43,2.06-.12.49-3.36,1.99-4.06,2.19-4.78,1.39-5.5-3.55-.37-4.25Z"/>
      <path d="M293.42,239.29c-.46,3.25-2.89,7.54-6.7,5.73.28-3.39,3.17-6.37,6.7-5.73Z"/>
      <path d="M287.18,217.71c.62.93-3.18,4.1-3.96,4.43-1.1.45-2.52.72-3.51-.08-1.83-2.52,5.22-6.21,7.47-4.34Z"/>
      <path d="M330.2,245.58c2.89-.94,7.44,4.15,4.49,5.96-2.67,1.64-6.72-5.23-4.49-5.96Z"/>
      <path d="M341.77,208.69c1.77-.26,5.27.67,4.23,2.77-1.49,2.98-12.85-1.51-4.23-2.77Z"/>
      <path d="M339.48,228.26c2.65-.98,7.63,1.39,5.31,4.59-1.74,2.4-5.71-4.05-5.31-4.59Z"/>
      <path d="M337.43,200.06c4.34-.99,7.31,2.66,4.11,3.64-2.11.64-8.79-2.57-4.11-3.64Z"/>
      <path d="M336.91,236.93c1.67-.44,7.14,1.62,5.01,4.56-1.37,1.89-7.83-3.81-5.01-4.56Z"/>
      <path d="M342.23,219.23c1.82-.56,6.76,1.11,5.68,3.26l-1.46.95-5.52-3.1c.4-.39.72-.93,1.3-1.11Z"/>
    </g>
  </g>
</svg>